<mxfile host="app.diagrams.net" modified="2024-03-07T01:38:44.441Z" agent="Mozilla/5.0 (Windows NT 10.0; Win64; x64) AppleWebKit/537.36 (KHTML, like Gecko) Chrome/122.0.0.0 Safari/537.36" version="24.0.2" etag="edN8wdhC9DxJQao8ih_y" type="github">
  <diagram name="Page-1" id="xrr4apngarKOUb4QRKVY">
    <mxGraphModel>
      <root>
        <mxCell id="0" />
        <mxCell id="1" parent="0" />
      </root>
    </mxGraphModel>
  </diagram>
</mxfile>
